<svg width="1200" height="630" viewBox="0 0 1200 630" xmlns="http://www.w3.org/2000/svg">
  <defs>
    <style>
      .title { font-family: 'Courier New', monospace; font-size: 100px; fill: #fdee00; font-weight: bold; text-anchor: middle; }
      .subtitle { font-family: 'Courier New', monospace; font-size: 40px; fill: #e5e5e5; text-anchor: middle; }
    </style>
  </defs>

  <!-- Background -->
  <rect width="1200" height="630" fill="#010080"/>

  <!-- ICQ Flower Icon -->
  <g transform="translate(525, 100) scale(7.5)">
    <path fill="#00FF00" d="M12,2C6.48,2,2,6.48,2,12s4.48,10,10,10s10-4.48,10-10S17.52,2,12,2z M12,20c-4.41,0-8-3.59-8-8s3.59-8,8-8 s8,3.59,8,8S16.41,20,12,20z M12,6c-3.31,0-6,2.69-6,6s2.69,6,6,6s6-2.69,6-6S15.31,6,12,6z"/>
  </g>

  <!-- Text -->
  <text x="600" y="420" class="title">uhoh.im</text>
  <text x="600" y="480" class="subtitle">An Interactive Tribute to ICQ</text>
</svg>